# xmcd
#
# Track frame offsets:
#	150
#	17700
#	35077
#	51405
#	67487
#	85877
#	106052
#	131112
#	147305
#	164050
#	183432
#
# Disc length: 2737 seconds
#
# Revision: 0
# Processed by: cddbd v1.5.2PL0 Copyright (c) Steve Scherf et al.
# Submitted via: EasyCDDAExtractor 15.3.0.1
#
DISCID=a90aaf0b
DTITLE=Jaime Camil - Para Estar Contigo
DYEAR=2000
DGENRE=Latin
TTITLE0=Nada Es Igual Sin Ti
TTITLE1=Fiesta De Amor
TTITLE2=Nunca Dejarte Ir
TTITLE3=Mi Vida Sin Ti
TTITLE4=Me Llego El Amor
TTITLE5=Si Quieres Amar Te Enseñare
TTITLE6=Encadename
TTITLE7=Morir Lentamente De Amor
TTITLE8=Que Me Quemo
TTITLE9=Hoy Que Te Vas
TTITLE10=Para Estar Contigo
EXTD=
EXTT0=
EXTT1=
EXTT2=
EXTT3=
EXTT4=
EXTT5=
EXTT6=
EXTT7=
EXTT8=
EXTT9=
EXTT10=
PLAYORDER=
